<svg width="28" height="27" viewBox="0 0 28 27" fill="none" xmlns="http://www.w3.org/2000/svg">
<path d="M25.3273 9.3178C22.7946 9.3178 21.7591 7.5267 23.0185 5.3298C23.7461 4.05643 23.3123 2.43325 22.039 1.70561L19.6182 0.320302C18.5127 -0.337369 17.0855 0.0544347 16.4278 1.15988L16.2739 1.42575C15.0145 3.62265 12.9435 3.62265 11.6702 1.42575L11.5162 1.15988C10.8866 0.0544347 9.45927 -0.337369 8.35382 0.320302L5.93303 1.70561C4.65967 2.43325 4.22589 4.07043 4.95352 5.34379C6.22689 7.5267 5.1914 9.3178 2.65867 9.3178C1.2034 9.3178 0 10.5071 0 11.9764V14.4392C0 15.8944 1.18941 17.0978 2.65867 17.0978C5.1914 17.0978 6.22689 18.8889 4.95352 21.0858C4.22589 22.3592 4.65967 23.9824 5.93303 24.71L8.35382 26.0953C9.45927 26.753 10.8866 26.3614 11.5442 25.2558L11.6982 24.9899C12.9575 22.793 15.0285 22.793 16.3018 24.9899L16.4558 25.2558C17.1134 26.3614 18.5407 26.753 19.6462 26.0953L22.067 24.71C23.3403 23.9824 23.7741 22.3452 23.0465 21.0858C21.7731 18.8889 22.8086 17.0978 25.3413 17.0978C26.7966 17.0978 28 15.9084 28 14.4392V11.9764C27.986 10.5211 26.7966 9.3178 25.3273 9.3178ZM13.993 17.7555C11.4883 17.7555 9.44528 15.7125 9.44528 13.2078C9.44528 10.703 11.4883 8.66013 13.993 8.66013C16.4978 8.66013 18.5407 10.703 18.5407 13.2078C18.5407 15.7125 16.4978 17.7555 13.993 17.7555Z" fill="white"/>
</svg>
